<svg width="24" height="24" viewBox="0 0 24 24" fill="none" xmlns="http://www.w3.org/2000/svg">
<path d="M13.2305 17.3125V6H17.4805C20.0742 6 21.4648 7.45312 21.4648 9.60938C21.4648 11.1484 20.7617 12.2891 19.4336 12.8281L21.8711 17.3125H19.6055L17.3867 13.1719H15.2617V17.3125H13.2305ZM15.2617 11.4688H17.168C18.6992 11.4688 19.3867 10.8125 19.3867 9.60938C19.3867 8.40625 18.6992 7.70312 17.168 7.70312H15.2617V11.4688Z" fill="black"/>
<path d="M3 17.3125V6H5.03125V11.2031H5.1875L9.60938 6H12.0938L7.71875 11.0781L12.1406 17.3125H9.6875L6.29688 12.4531L5.03125 13.9375V17.3125H3Z" fill="black"/>
</svg>
