<svg width="107" height="18" viewBox="0 0 107 18" fill="none" xmlns="http://www.w3.org/2000/svg">
<path d="M1.90608 17.5891H0V0.50448L1.90608 0.0703125V17.5891ZM7.41835 5.20843L8.9152 6.32841L4.99043 11.2619L9.52768 16.7208L8.03082 17.9071L2.74652 11.3531L7.41835 5.20843Z" fill="black"/>
<path d="M15.2645 10.6252H17.6458V9.64347C17.6458 7.7464 16.8053 6.99421 15.2179 6.99421C14.1055 6.99421 12.8586 7.33712 11.8836 7.79341L11.315 6.44666C12.518 5.76084 13.9682 5.35156 15.2618 5.35156C18.0962 5.35156 19.4804 6.7232 19.4804 9.73749V17.594H18.0742L17.8463 16.2694C16.668 17.229 15.1464 17.7765 13.9435 17.7765C11.8341 17.7765 10.5625 16.4961 10.5625 14.3502C10.5625 11.9056 12.1967 10.6279 15.259 10.6279L15.2645 10.6252ZM17.6485 14.8507V11.9719H15.5172C13.3612 11.9719 12.3862 12.702 12.3862 14.2562C12.3862 15.5116 13.0673 16.2196 14.2923 16.2196C15.4046 16.2196 16.8548 15.625 17.6485 14.848V14.8507Z" fill="black"/>
<path d="M24.7887 17.5891H22.8826V0.50448L24.7887 0.0703125V17.5891ZM30.3009 5.20843L31.7978 6.32841L27.873 11.2619L32.4102 16.7208L30.9134 17.9071L25.6291 11.3531L30.3009 5.20843Z" fill="black"/>
<path d="M38.1549 10.6252H40.5362V9.64347C40.5362 7.7464 39.6957 6.99421 38.1082 6.99421C36.9959 6.99421 35.749 7.33712 34.774 7.79341L34.2054 6.44666C35.4084 5.76084 36.8586 5.35156 38.1522 5.35156C40.9866 5.35156 42.3708 6.7232 42.3708 9.73749V17.594H40.9646L40.7366 16.2694C39.5584 17.229 38.0368 17.7765 36.8338 17.7765C34.7245 17.7765 33.4529 16.4961 33.4529 14.3502C33.4529 11.9056 35.0871 10.6279 38.1494 10.6279L38.1549 10.6252ZM40.5389 14.8507V11.9719H38.4076C36.2516 11.9719 35.2766 12.702 35.2766 14.2562C35.2766 15.5116 35.9577 16.2196 37.1827 16.2196C38.295 16.2196 39.7452 15.625 40.5389 14.848V14.8507Z" fill="black"/>
<path d="M55.7116 11.6058C55.7116 15.6018 53.7368 17.8196 50.4025 17.8196C47.0683 17.8196 45.0935 15.6045 45.0935 11.6058C45.0935 7.60699 47.1122 5.34766 50.4025 5.34766C53.6929 5.34766 55.7116 7.58487 55.7116 11.6058ZM47.0683 11.6058C47.0683 14.6449 48.2932 16.2433 50.4025 16.2433C52.5119 16.2433 53.7368 14.6449 53.7368 11.6058C53.7368 8.56658 52.5119 6.92394 50.4025 6.92394C48.2932 6.92394 47.0683 8.56935 47.0683 11.6058Z" fill="black"/>
<path d="M58.5388 17.2229V0.54755L61.5792 0V5.96221C62.3043 5.50592 63.2573 5.18513 64.301 5.18513C67.5227 5.18513 69.0195 7.40022 69.0195 11.2607C69.0195 15.4392 66.7509 17.9309 62.9854 17.9309C61.2386 17.9309 59.3793 17.588 58.5388 17.2229ZM61.5792 7.92565V15.5554C62.0544 15.6245 62.373 15.6245 62.6668 15.6245C64.5729 15.6245 65.9324 14.4133 65.9324 11.3299C65.9324 9.00139 65.3639 7.65187 63.2106 7.65187C62.5295 7.65187 61.939 7.81226 61.5765 7.92565H61.5792Z" fill="black"/>
<path d="M75.437 10.2542H77.343V9.84215C77.343 8.51753 76.9338 7.76257 75.1431 7.76257C74.0307 7.76257 73.0118 7.9921 71.9214 8.56177L71.081 6.46007C72.2373 5.66087 73.9401 5.17969 75.5056 5.17969C78.568 5.17969 80.1775 6.68683 80.1775 9.81727V17.5825H78.0462L77.7056 16.5538C76.4806 17.5134 75.1651 17.9005 74.0994 17.9005C71.7621 17.9005 70.4685 16.5068 70.4685 14.1092C70.4685 11.5733 72.1933 10.2487 75.437 10.2487V10.2542ZM77.343 14.5738V12.2204H75.7089C74.0747 12.2204 73.2123 12.8813 73.2123 14.0926C73.2123 14.9609 73.7121 15.5306 74.7091 15.5306C75.7061 15.5306 76.7965 15.0522 77.3403 14.571L77.343 14.5738Z" fill="black"/>
<path d="M82.8982 5.55253H85.0542L85.5074 6.76378C86.573 5.80418 88.0479 5.1875 89.3196 5.1875C91.9974 5.1875 93.335 6.85504 93.335 9.86933V17.5903H90.2946V9.77807C90.2946 8.43132 89.7947 7.85888 88.1852 7.85888C87.5508 7.85888 86.6417 8.04139 85.9386 8.31517V17.5876H82.8982V5.55253Z" fill="black"/>
<path d="M102.27 11.1916L106.398 16.1721L104.107 18L99.0948 11.811V17.5907H96.0544V0.54755L99.0948 0V11.0782L103.676 4.8201L105.945 6.4185L102.27 11.1916Z" fill="black"/>
</svg>
